<svg width="1922" height="1067" viewBox="0 0 1922 1067" fill="none" xmlns="http://www.w3.org/2000/svg">
<path d="M1 0H1920V1066H1V0Z" fill="#2F2F2F"/>
<path d="M441.523 5.02831L0.961945 170.962V422.377H1919.04V226.274L1807.45 145.821L1628.54 5.02831L1399.6 62.8538L858.998 145.821L441.523 5.02831Z" fill="#232323" stroke="#232323"/>
<path d="M441.523 155.877L0.961945 321.811V573.226H1919.04V377.123L1807.45 296.67L1628.54 155.877L1399.6 213.703L858.998 296.67L441.523 155.877Z" fill="#1D1D1D" stroke="#1D1D1D"/>
<path d="M442.561 343.489L2 509.423V760.838H1920.08V564.734L1808.49 484.281L1629.58 343.489L1400.64 401.314L860.036 484.281L442.561 343.489Z" fill="#161616" stroke="#1B1B1B"/>
<path d="M441.523 522.943L0.961945 688.877V940.292H1919.04V744.189L1807.45 663.736L1628.54 522.943L1399.6 580.769L858.998 663.736L441.523 522.943Z" fill="#0E0E0E" stroke="#0E0E0E"/>
<path d="M442.003 714L1 853.944V1065.98H1921V900.592L1809.3 832.741L1630.21 714L1401.04 762.768L859.897 832.741L442.003 714Z" fill="#070707" stroke="#070707"/>
</svg>
