<svg width="38" height="33" viewBox="0 0 38 33" fill="none" xmlns="http://www.w3.org/2000/svg">
<path d="M17.5457 3.59675L18.9058 3.60252M15.4974 5.51187L15.511 2.30558C15.514 1.59727 16.1254 1.02565 16.8766 1.02884L22.3169 1.0519C23.0681 1.05509 23.6745 1.63187 23.6715 2.34019L23.6443 8.75276C23.6413 9.46107 23.03 10.0327 22.2788 10.0295L16.8385 10.0064C16.0873 10.0033 15.476 10.5749 15.473 11.2832L15.4458 17.6958C15.4428 18.4041 16.0493 18.9809 16.8004 18.984L22.2408 19.0071C22.9919 19.0103 23.6033 18.4387 23.6063 17.7304L23.6199 14.5241M20.255 6.17331L11.4145 6.13583C10.6633 6.13264 10.052 6.70427 10.049 7.41258L10.0218 13.8252C10.0188 14.5335 10.6253 15.1102 11.3764 15.1134L15.4567 15.1307M18.8623 13.8626L27.7028 13.9001C28.454 13.9033 29.0654 13.3317 29.0684 12.6234L29.0955 6.2108C29.0986 5.50249 28.4921 4.9257 27.7409 4.92252L23.6607 4.90522M20.2115 16.4334L21.5716 16.4392" stroke="black"/>
<path d="M37.0547 7.99512C37.559 8.04627 37.9521 8.47243 37.9521 8.99023V28.1738C37.9518 28.7259 37.5042 29.1738 36.9521 29.1738H26.3584C25.3704 29.1739 24.4489 29.5065 23.793 30.0605C23.1423 30.6105 22.8175 31.3172 22.8174 32.0098L22.8125 32.1123C22.7612 32.6165 22.3351 33.0098 21.8174 33.0098C21.2999 33.0095 20.8735 32.6164 20.8223 32.1123L20.8174 32.0098V20.8711H22.8174V28.2881C23.8199 27.5619 25.0765 27.1739 26.3584 27.1738H35.9521V9.99023H30.0732V7.99023H36.9521L37.0547 7.99512Z" fill="black"/>
<path d="M1.71484 7.99512C1.21053 8.04627 0.817383 8.47243 0.817383 8.99023V28.1738C0.817686 28.7259 1.26529 29.1738 1.81738 29.1738H12.4111C13.3991 29.1739 14.3207 29.5065 14.9766 30.0605C15.6272 30.6105 15.9521 31.3172 15.9521 32.0098L15.957 32.1123C16.0083 32.6165 16.4344 33.0098 16.9521 33.0098C17.4697 33.0095 17.896 32.6164 17.9473 32.1123L17.9521 32.0098V20.8711H15.9521V28.2881C14.9497 27.5619 13.693 27.1739 12.4111 27.1738H2.81738V9.99023H8.69629V7.99023H1.81738L1.71484 7.99512Z" fill="black"/>
</svg>
