<svg width="50" height="50" viewBox="0 0 50 50" fill="none" xmlns="http://www.w3.org/2000/svg">
<circle cx="25" cy="25" r="24" fill="url(#paint0_linear_8_2)" stroke="white" stroke-width="2"/>
<path d="M23.5457 10.5967L24.9058 10.6025M21.4974 12.5119L21.511 9.30558C21.514 8.59727 22.1254 8.02565 22.8766 8.02884L28.3169 8.0519C29.0681 8.05509 29.6745 8.63187 29.6715 9.34019L29.6443 15.7528C29.6413 16.4611 29.03 17.0327 28.2788 17.0295L22.8385 17.0064C22.0873 17.0033 21.476 17.5749 21.473 18.2832L21.4458 24.6958C21.4428 25.4041 22.0493 25.9809 22.8004 25.984L28.2408 26.0071C28.9919 26.0103 29.6033 25.4387 29.6063 24.7304L29.6199 21.5241M26.255 13.1733L17.4145 13.1358C16.6633 13.1326 16.052 13.7043 16.049 14.4126L16.0218 20.8252C16.0188 21.5335 16.6253 22.1102 17.3764 22.1134L21.4567 22.1307M24.8623 20.8626L33.7028 20.9001C34.454 20.9033 35.0654 20.3317 35.0684 19.6234L35.0955 13.2108C35.0986 12.5025 34.4921 11.9257 33.7409 11.9225L29.6607 11.9052M26.2115 23.4334L27.5716 23.4392" stroke="white"/>
<path d="M43.0547 14.9951C43.559 15.0463 43.9521 15.4724 43.9521 15.9902V35.1738C43.9518 35.7259 43.5042 36.1738 42.9521 36.1738H32.3584C31.3704 36.1739 30.4489 36.5065 29.793 37.0605C29.1423 37.6105 28.8175 38.3172 28.8174 39.0098L28.8125 39.1123C28.7612 39.6165 28.3351 40.0098 27.8174 40.0098C27.2999 40.0095 26.8735 39.6164 26.8223 39.1123L26.8174 39.0098V27.8711H28.8174V35.2881C29.8199 34.5619 31.0765 34.1739 32.3584 34.1738H41.9521V16.9902H36.0732V14.9902H42.9521L43.0547 14.9951Z" fill="white"/>
<path d="M7.71484 14.9951C7.21053 15.0463 6.81738 15.4724 6.81738 15.9902V35.1738C6.81769 35.7259 7.26529 36.1738 7.81738 36.1738H18.4111C19.3991 36.1739 20.3207 36.5065 20.9766 37.0605C21.6272 37.6105 21.9521 38.3172 21.9521 39.0098L21.957 39.1123C22.0083 39.6165 22.4344 40.0098 22.9521 40.0098C23.4697 40.0095 23.896 39.6164 23.9473 39.1123L23.9521 39.0098V27.8711H21.9521V35.2881C20.9497 34.5619 19.693 34.1739 18.4111 34.1738H8.81738V16.9902H14.6963V14.9902H7.81738L7.71484 14.9951Z" fill="white"/>
<defs>
<linearGradient id="paint0_linear_8_2" x1="25" y1="0" x2="25" y2="50" gradientUnits="userSpaceOnUse">
<stop stop-color="#194F99"/>
<stop offset="0.408654" stop-color="#17488B"/>
<stop offset="1" stop-color="#081A33"/>
</linearGradient>
</defs>
</svg>
